<svg width="19" height="23" viewBox="0 0 19 23" fill="none" xmlns="http://www.w3.org/2000/svg">
<path d="M17.6446 2.60364H16.9721V19.1259C16.9721 20.2235 16.0786 21.117 14.981 21.117H8.16697H2.74841V21.7294C2.74841 22.4308 3.31765 23 4.01899 23H10.8306H17.6422C18.3436 23 18.9128 22.4308 18.9128 21.7294V3.87421C18.9128 3.17287 18.346 2.60364 17.6446 2.60364Z" fill="#1B1B1B"/>
<path d="M8.16695 20.3964H14.9786C15.6799 20.3964 16.2491 19.8272 16.2491 19.1259V2.60359V1.27057C16.2491 0.569236 15.6799 0 14.9786 0H8.16695H5.90201V0.420322C5.90679 0.463555 5.90922 0.50919 5.90922 0.554825V3.32414V4.03509C5.90922 5.02224 5.10701 5.82446 4.11985 5.82446H3.4089H0.639582C0.603554 5.82446 0.565125 5.82206 0.529097 5.81965H0.0871582V19.1259C0.0871582 19.8272 0.656394 20.3964 1.35773 20.3964H2.7508H8.16695ZM8.42395 16.0779H3.98294C3.65149 16.0779 3.38248 15.8089 3.38248 15.4774C3.38248 15.146 3.65149 14.877 3.98294 14.877H8.42635C8.7578 14.877 9.02681 15.146 9.02681 15.4774C9.02681 15.8089 8.7554 16.0779 8.42395 16.0779ZM12.8674 13.0132H3.98294C3.65149 13.0132 3.38248 12.7442 3.38248 12.4127C3.38248 12.0812 3.65149 11.8123 3.98294 11.8123H12.8674C13.1988 11.8123 13.4678 12.0812 13.4678 12.4127C13.4678 12.7442 13.1988 13.0132 12.8674 13.0132ZM3.98294 8.55775H12.8674C13.1988 8.55775 13.4678 8.82675 13.4678 9.15821C13.4678 9.48966 13.1988 9.75867 12.8674 9.75867H3.98294C3.65149 9.75867 3.38248 9.48966 3.38248 9.15821C3.38248 8.82675 3.65149 8.55775 3.98294 8.55775Z" fill="#1B1B1B"/>
<path d="M0.639446 5.10386H4.11971C4.12211 5.10386 4.12691 5.10386 4.12932 5.10386C4.71056 5.09905 5.18132 4.62829 5.18612 4.04705C5.18612 4.04465 5.18612 4.03984 5.18612 4.03744V0.554775C5.18612 0.232929 4.92192 0.019165 4.64814 0.019165C4.51604 0.019165 4.38393 0.0672018 4.27345 0.177686L0.259956 4.19116C-0.0763012 4.52742 0.161481 5.10386 0.639446 5.10386Z" fill="#1B1B1B"/>
</svg>
