<svg width="28" height="28" viewBox="0 0 28 28" fill="none" xmlns="http://www.w3.org/2000/svg">
<path d="M26.9832 13.6408L25.7183 10.0693C25.5811 9.68193 25.1788 9.45602 24.7764 9.54034L22.413 10.0367L22.407 0.819766C22.4067 0.366898 22.0395 0 21.5867 0H17.3895C16.9348 0 16.5667 0.37018 16.5692 0.824852L16.5767 2.1683L14.553 0.228156C14.4003 0.0817578 14.1969 0 13.9853 0H10.157V13.125C10.157 13.578 9.7897 13.9453 9.33667 13.9453C8.88364 13.9453 8.51636 13.578 8.51636 13.125V0H5.89136V3.77344C5.89136 4.22647 5.52408 4.59375 5.07104 4.59375C4.61801 4.59375 4.25073 4.22647 4.25073 3.77344V0H1.78979C1.33676 0 0.969482 0.367281 0.969482 0.820312V27.1797C0.969482 27.6327 1.33676 28 1.78979 28H17.4851V20.3438C17.4851 19.8907 17.8524 19.5234 18.3054 19.5234C18.7584 19.5234 19.1257 19.8907 19.1257 20.3438V28H21.5867C22.0397 28 22.407 27.6327 22.407 27.1797V17.902L26.7126 14.5629C26.9923 14.3461 27.1013 13.9744 26.9832 13.6408ZM5.89136 15.6406C5.89136 16.0937 5.52408 16.4609 5.07104 16.4609C4.61801 16.4609 4.25073 16.0937 4.25073 15.6406V7.76562C4.25073 7.31259 4.61801 6.94531 5.07104 6.94531C5.52408 6.94531 5.89136 7.31259 5.89136 7.76562V15.6406ZM10.157 23.8984C10.157 24.3515 9.7897 24.7188 9.33667 24.7188C8.88364 24.7188 8.51636 24.3515 8.51636 23.8984V17.6094C8.51636 17.1563 8.88364 16.7891 9.33667 16.7891C9.7897 16.7891 10.157 17.1563 10.157 17.6094V23.8984ZM14.8601 17.8828C14.8601 18.3358 14.4928 18.7031 14.0398 18.7031C13.5868 18.7031 13.2195 18.3358 13.2195 17.8828V10.7188C13.2195 10.2657 13.5868 9.89844 14.0398 9.89844C14.4928 9.89844 14.8601 10.2657 14.8601 10.7188V17.8828ZM14.8601 6.67188C14.8601 7.12491 14.4928 7.49219 14.0398 7.49219C13.5868 7.49219 13.2195 7.12491 13.2195 6.67188V5.03125C13.2195 4.57822 13.5868 4.21094 14.0398 4.21094C14.4928 4.21094 14.8601 4.57822 14.8601 5.03125V6.67188ZM19.1257 16.5156C19.1257 16.9687 18.7584 17.3359 18.3054 17.3359C17.8524 17.3359 17.4851 16.9687 17.4851 16.5156V12.7969C17.4851 12.3438 17.8524 11.9766 18.3054 11.9766C18.7584 11.9766 19.1257 12.3438 19.1257 12.7969V16.5156Z" fill="white"/>
</svg>
