<svg width="120" height="120" viewBox="0 0 120 120" fill="none" xmlns="http://www.w3.org/2000/svg">
<g opacity="0.3">
<path d="M100.645 101.058L97.5493 97.4235V59.5471C97.5493 42.4532 86.0249 28.0004 70.3377 23.5499C74.9762 20.2874 78.0158 14.8979 78.0158 8.80863V-0.00012207H41.9849V8.80863C41.9849 14.8979 45.0245 20.2874 49.663 23.5499C33.9758 28.0007 22.4513 42.4532 22.4513 59.5471V97.4235L19.3555 101.058C15.4147 105.684 13.2444 111.579 13.2444 117.656V120H106.756V117.656C106.756 111.579 104.586 105.684 100.645 101.058ZM73.1996 79.2807L75.1642 79.45L75.3334 81.4145C75.3596 81.7189 75.9263 88.9194 71.6152 93.2307C69.2464 95.5996 66.0062 96.4949 63.516 96.8171V103.142H56.4847V96.8171C53.9945 96.4949 50.7542 95.5996 48.3854 93.2307C44.0741 88.9194 44.6408 81.7189 44.6673 81.4145L44.8365 79.45L46.801 79.2807C47.0591 79.2585 52.2756 78.8488 56.4847 81.3533V78.23C53.9945 77.9078 50.7545 77.0125 48.3854 74.6434C44.0741 70.3321 44.6408 63.1316 44.6673 62.8271L44.8365 60.8626L46.801 60.6934C47.0595 60.6711 52.2758 60.2617 56.4847 62.7662V59.991C54.8326 58.0222 52.7654 54.8125 52.7654 51.0714C52.7654 44.9743 58.2577 40.2836 58.4914 40.0867L60.0003 38.8173L61.5092 40.0867C61.7431 40.2833 67.2352 44.9743 67.2352 51.0714C67.2352 54.8125 65.1681 58.0222 63.516 59.991V62.7662C67.7251 60.2617 72.9416 60.6711 73.1996 60.6934L75.1642 60.8626L75.3334 62.8271C75.3596 63.1316 75.9263 70.3321 71.6152 74.6434C69.2464 77.0122 66.0062 77.9075 63.516 78.2298V81.3531C67.7251 78.849 72.9413 79.2585 73.1996 79.2807Z" fill="white"/>
</g>
</svg>
