<svg width="25" height="25" viewBox="0 0 25 25" fill="none" xmlns="http://www.w3.org/2000/svg">
<path d="M20.9678 21.0538L20.3228 20.2966V12.4057C20.3228 8.84443 17.9219 5.83345 14.6537 4.90625C15.6201 4.22656 16.2533 3.10376 16.2533 1.83516V0H8.74687V1.83516C8.74687 3.10376 9.38013 4.22656 10.3465 4.90625C7.07832 5.8335 4.67739 8.84443 4.67739 12.4057V20.2966L4.03242 21.0538C3.21143 22.0176 2.75928 23.2457 2.75928 24.5117V25H22.2408V24.5117C22.2409 23.2457 21.7887 22.0176 20.9678 21.0538ZM15.25 16.5168L15.6592 16.5521L15.6945 16.9614C15.7 17.0248 15.818 18.5249 14.9199 19.4231C14.4264 19.9166 13.7513 20.1031 13.2325 20.1703V21.4879H11.7677V20.1703C11.2489 20.1031 10.5738 19.9166 10.0803 19.4231C9.18213 18.5249 9.3002 17.0248 9.30571 16.9614L9.34097 16.5521L9.75024 16.5168C9.804 16.5122 10.8908 16.4269 11.7677 16.9486V16.2979C11.2489 16.2308 10.5739 16.0443 10.0803 15.5507C9.18213 14.6525 9.3002 13.1524 9.30571 13.089L9.34097 12.6797L9.75024 12.6445C9.8041 12.6398 10.8908 12.5545 11.7677 13.0763V12.4981C11.4235 12.088 10.9928 11.4193 10.9928 10.6399C10.9928 9.36968 12.1371 8.39243 12.1857 8.35142L12.5001 8.08696L12.8145 8.35142C12.8632 8.39238 14.0074 9.36968 14.0074 10.6399C14.0074 11.4193 13.5767 12.088 13.2325 12.4981V13.0763C14.1094 12.5545 15.1962 12.6398 15.25 12.6445L15.6592 12.6797L15.6945 13.089C15.7 13.1524 15.818 14.6525 14.9199 15.5507C14.4264 16.0442 13.7513 16.2308 13.2325 16.2979V16.9486C14.1094 16.4269 15.1961 16.5122 15.25 16.5168Z" fill="white"/>
</svg>
