<svg width="24" height="33" viewBox="0 0 24 33" fill="none" xmlns="http://www.w3.org/2000/svg">
<path d="M21.8556 25.3268C18.6952 25.1335 15.6504 26.1183 13.2536 28.0303V26.691L20.2823 19.7863C20.5175 19.5554 20.6495 19.2422 20.6495 18.9155V2.04493C20.6495 1.36477 20.0883 0.813477 19.396 0.813477C18.7036 0.813477 18.1424 1.36477 18.1424 2.04493V4.47343L13.2536 9.27605V2.04493C13.2536 1.36477 12.6923 0.813477 12 0.813477C11.3077 0.813477 10.7465 1.36477 10.7465 2.04493V9.27605L5.85765 4.47343V2.04493C5.85765 1.36477 5.2964 0.813477 4.60409 0.813477C3.91177 0.813477 3.35052 1.36477 3.35052 2.04493V18.9155C3.35052 19.2422 3.48259 19.5554 3.71771 19.7863L10.7465 26.691V28.0302C8.34952 26.1181 5.30459 25.1332 2.14446 25.3268C1.45346 25.369 0.928213 25.9535 0.971213 26.6323C1.01421 27.3112 1.6089 27.8271 2.30021 27.7848C5.71246 27.576 8.95902 29.0885 10.9857 31.8301C11.483 32.5023 12.5114 32.5099 13.0143 31.8301C15.041 29.0885 18.2881 27.5762 21.6998 27.7848C22.3911 27.828 22.9858 27.3111 23.0288 26.6323C23.0718 25.9536 22.5465 25.369 21.8556 25.3268V25.3268ZM13.2536 12.759L18.1424 7.95649V11.4394L13.2536 16.242V12.759ZM13.2536 19.725L18.1424 14.9225V18.4055L13.2536 23.208V19.725ZM10.7465 23.208L5.85765 18.4054V14.9224L10.7465 19.725V23.208ZM10.7465 16.242L5.85765 11.4394V7.95643L10.7465 12.759V16.242Z" fill="#D87D1A"/>
</svg>
