<svg width="32" height="37" viewBox="0 0 32 37" fill="none" xmlns="http://www.w3.org/2000/svg">
<g clip-path="url(#clip0_5_1025)">
<path d="M6.90137 19.5042C7.05078 19.7213 7.19409 19.9536 7.33032 20.2013C7.51416 20.5354 7.68091 20.8911 7.83106 21.2642C7.98145 20.8911 8.1482 20.5354 8.33204 20.2013C8.46827 19.9536 8.61158 19.7213 8.761 19.5042H6.90137Z" fill="#85BF2D"/>
<path d="M6.90161 33.4046H8.761C8.61158 33.1875 8.46827 32.9552 8.33204 32.7075C8.1482 32.3734 7.98145 32.0174 7.83131 31.6445C7.68091 32.0174 7.51416 32.3734 7.33033 32.7075C7.19409 32.9552 7.05078 33.1875 6.90161 33.4046Z" fill="#85BF2D"/>
<path d="M24.0457 17.3478C25.187 17.3478 25.9949 16.1892 26.3748 15.4985C27.115 14.1522 27.5227 12.3405 27.5227 10.3975C27.5227 8.45425 27.115 6.64284 26.3748 5.29655C25.9949 4.60588 25.187 3.44727 24.0457 3.44727H11.3196C11.4688 3.6644 11.6121 3.89668 11.7483 4.14439C12.676 5.83097 13.1868 8.05169 13.1868 10.3975C13.1868 12.7431 12.676 14.9638 11.7483 16.6504C11.6121 16.8981 11.4688 17.1304 11.3196 17.3475H24.0457V17.3478ZM19.4702 13.7395H15.3479V11.5831H19.4702V13.7395ZM24.4322 8.48315H20.3098V6.32696H24.4322V8.48315Z" fill="#85BF2D"/>
<path d="M5.50366 15.4985C5.88355 16.1892 6.69117 17.3478 7.83277 17.3478C8.97437 17.3478 9.78224 16.1892 10.1619 15.4985C10.9024 14.1522 11.3101 12.3408 11.3101 10.3975C11.3101 8.45425 10.9024 6.64284 10.1619 5.29655C9.78224 4.60616 8.97437 3.44727 7.83277 3.44727C6.69117 3.44727 5.88355 4.60616 5.50366 5.29655C4.76318 6.64284 4.35547 8.45425 4.35547 10.3975C4.35547 12.3408 4.76343 14.1522 5.50366 15.4985ZM7.83301 7.05579C8.80201 7.05579 9.38062 8.30501 9.38062 10.3975C9.38062 12.49 8.80201 13.7395 7.83301 13.7395C6.86377 13.7395 6.28516 12.49 6.28516 10.3975C6.28516 8.30501 6.86377 7.05579 7.83301 7.05579Z" fill="#85BF2D"/>
<path d="M15.7341 19.5042C15.8835 19.7213 16.0269 19.9536 16.1631 20.2013C17.0906 21.8879 17.6016 24.1083 17.6016 26.4542C17.6016 28.8 17.0906 31.0207 16.1631 32.7073C16.0269 32.955 15.8835 33.187 15.7341 33.4044H28.4602C29.6018 33.4044 30.4095 32.2458 30.7893 31.5551C31.5298 30.2088 31.9375 28.3974 31.9375 26.4542C31.9375 24.5109 31.5296 22.6995 30.7893 21.3532C30.4095 20.6625 29.6018 19.5039 28.4602 19.5039H15.7341V19.5042ZM25.3621 23.4056H29.4844V25.5618H25.3621V23.4056ZM20.3999 28.6617H24.5222V30.8182H20.3999V28.6617Z" fill="#85BF2D"/>
<path d="M12.2476 33.4044C13.3892 33.4044 14.1968 32.2458 14.5767 31.5551C15.3172 30.2088 15.7249 28.3974 15.7249 26.4542C15.7249 24.5112 15.3172 22.6995 14.5767 21.3532C14.1968 20.6628 13.3892 19.5039 12.2476 19.5039C11.106 19.5039 10.2983 20.6625 9.91846 21.3532C9.17798 22.6995 8.77026 24.5112 8.77026 26.4542C8.77026 28.3974 9.17798 30.2088 9.91846 31.5551C10.2983 32.2458 11.106 33.4044 12.2476 33.4044ZM10.7 26.4542C10.7 24.3616 11.2786 23.1124 12.2476 23.1124C13.2166 23.1124 13.7952 24.3616 13.7952 26.4542C13.7952 28.5469 13.2166 29.7962 12.2476 29.7962C11.2786 29.7962 10.7 28.5469 10.7 26.4542Z" fill="#85BF2D"/>
<path d="M3.4148 33.4044C4.55641 33.4044 5.36402 32.2458 5.74391 31.5551C6.48439 30.2088 6.8921 28.3974 6.8921 26.4542C6.8921 24.5112 6.48439 22.6995 5.74391 21.3532C5.36402 20.6628 4.55641 19.5039 3.4148 19.5039C2.2732 19.5039 1.46558 20.6628 1.0857 21.3535C0.345216 22.6995 -0.0625 24.5112 -0.0625 26.4542C-0.0625 28.3974 0.345216 30.2088 1.0857 31.5551C1.46558 32.2458 2.2732 33.4044 3.4148 33.4044ZM1.86719 26.4542C1.86719 24.3616 2.44581 23.1124 3.4148 23.1124C4.3838 23.1124 4.96241 24.3616 4.96241 26.4542C4.96241 28.5469 4.3838 29.7962 3.4148 29.7962C2.44581 29.7962 1.86719 28.5469 1.86719 26.4542Z" fill="#85BF2D"/>
</g>
<defs>
<clipPath id="clip0_5_1025">
<rect width="32" height="36.7702" fill="white"/>
</clipPath>
</defs>
</svg>
