<svg width="69" height="69" viewBox="0 0 69 69" fill="none" xmlns="http://www.w3.org/2000/svg">
<path d="M46.5535 53.6744H56.7654L55.6873 46.2623C56.4651 45.4697 56.9916 44.4651 57.2005 43.3744C57.4095 42.2838 57.2917 41.1557 56.862 40.1317C56.4322 39.1078 55.7096 38.2336 54.7848 37.6188C53.86 37.004 52.7742 36.676 51.6638 36.676C50.5533 36.676 49.4675 37.004 48.5427 37.6188C47.6179 38.2336 46.8953 39.1078 46.4656 40.1317C46.0358 41.1557 45.918 42.2838 46.127 43.3744C46.3359 44.4651 46.8624 45.4697 47.6402 46.2623L46.5535 53.6744Z" fill="#85BF2D"/>
<path d="M62.5097 55.8306H40.8092C40.4531 55.8304 40.1004 55.9005 39.7713 56.0367C39.4422 56.1729 39.1431 56.3726 38.8912 56.6244C38.6393 56.8762 38.4395 57.1751 38.3032 57.5042C38.1669 57.8332 38.0967 58.1859 38.0967 58.5421V66.3606H65.2266V58.5421C65.2265 58.1856 65.1561 57.8326 65.0194 57.5033C64.8828 57.1741 64.6825 56.875 64.4302 56.6232C64.1779 56.3713 63.8784 56.1717 63.5489 56.0357C63.2193 55.8997 62.8662 55.83 62.5097 55.8306ZM57.2981 63.3591H46.022C45.736 63.3591 45.4618 63.2455 45.2596 63.0433C45.0574 62.8411 44.9439 62.5669 44.9439 62.281C44.9439 61.9951 45.0574 61.7208 45.2596 61.5186C45.4618 61.3164 45.736 61.2029 46.022 61.2029H57.2981C57.584 61.2029 57.8582 61.3164 58.0604 61.5186C58.2626 61.7208 58.3762 61.9951 58.3762 62.281C58.3762 62.5669 58.2626 62.8411 58.0604 63.0433C57.8582 63.2455 57.584 63.3591 57.2981 63.3591Z" fill="#85BF2D"/>
<path d="M14.0059 6.35327L6.35767 14.0026H14.0059V6.35327Z" fill="#85BF2D"/>
<path d="M16.1622 5.27515V15.0807C16.1622 15.3666 16.0486 15.6409 15.8464 15.843C15.6442 16.0452 15.37 16.1588 15.0841 16.1588H5.28284V62.7187H35.9447V58.5421C35.9461 57.2512 36.4596 56.0136 37.3723 55.1009C38.2851 54.1881 39.5227 53.6747 40.8135 53.6732H44.3789L45.3675 46.9069C44.5198 45.745 44.0103 44.3711 43.8954 42.9374C43.7805 41.5037 44.0648 40.0662 44.7167 38.7841C45.3686 37.502 46.3628 36.4254 47.5889 35.6736C48.8151 34.9218 50.2255 34.5242 51.6638 34.5247V5.27515H16.1622ZM25.4039 12.6862H43.5962C43.8821 12.6862 44.1563 12.7998 44.3585 13.002C44.5607 13.2041 44.6743 13.4784 44.6743 13.7643C44.6743 14.0502 44.5607 14.3245 44.3585 14.5267C44.1563 14.7288 43.8821 14.8424 43.5962 14.8424H25.4039C25.118 14.8424 24.8437 14.7288 24.6415 14.5267C24.4394 14.3245 24.3258 14.0502 24.3258 13.7643C24.3258 13.4784 24.4394 13.2041 24.6415 13.002C24.8437 12.7998 25.118 12.6862 25.4039 12.6862ZM32.1368 47.087C31.7805 48.0092 31.5246 48.967 31.3735 49.944C30.9066 52.2598 30.4926 54.2565 28.9067 54.1886C27.4922 54.1217 27.061 52.3968 26.5219 50.22C26.3376 49.4225 26.1119 48.6352 25.8459 47.8611C25.735 48.925 25.6879 49.9946 25.7047 51.0642C25.6896 53.7433 25.6767 56.2748 24.426 57.3745C24.0406 57.7184 23.541 57.9067 23.0245 57.9027C22.9239 57.9026 22.8234 57.8961 22.7237 57.8833C20.3669 57.5944 19.8559 55.0209 19.361 52.5304C18.6753 49.0804 18.0672 47.004 15.3913 47.2476C15.0189 47.2449 14.6516 47.3341 14.322 47.5073C13.9923 47.6806 13.7105 47.9324 13.5014 48.2406C12.5839 49.7909 13.5812 52.9272 14.0016 53.904C14.0631 54.0347 14.0976 54.1764 14.1032 54.3207C14.1088 54.465 14.0853 54.609 14.0342 54.7441C13.9831 54.8792 13.9053 55.0026 13.8056 55.107C13.7058 55.2115 13.5861 55.2948 13.4535 55.3521C13.321 55.4094 13.1782 55.4395 13.0338 55.4405C12.8894 55.4416 12.7462 55.4137 12.6128 55.3583C12.4794 55.303 12.3585 55.2214 12.2572 55.1185C12.1559 55.0155 12.0764 54.8932 12.0233 54.7589C11.8077 54.2695 10.0104 49.9074 11.6449 47.143C12.0208 46.5373 12.5407 46.0339 13.1582 45.6776C13.7757 45.3214 14.4718 45.1233 15.1843 45.1011C20.0208 44.6353 20.8865 49.1333 21.4763 52.1089C21.8213 53.8457 22.1771 55.643 22.9857 55.7422C23.5247 55.3605 23.5452 52.4496 23.5527 51.0502C23.5678 48.1931 23.5797 45.9366 25.0686 45.2994C25.2987 45.1981 25.5482 45.1483 25.7997 45.1535C26.0511 45.1587 26.2983 45.2188 26.5241 45.3296C27.6755 45.9032 28.1121 47.6616 28.6189 49.6971C28.7137 50.082 28.8345 50.5521 28.9531 50.9909C29.0727 50.4917 29.1838 49.9397 29.2679 49.5214C29.7595 47.0827 30.1832 44.9749 31.85 44.9749C32.1103 44.9747 32.3619 45.0686 32.5583 45.2394C32.7547 45.4101 32.8828 45.6462 32.9188 45.9039C32.9548 46.1617 32.8963 46.4238 32.7542 46.6419C32.612 46.8599 32.3958 47.0191 32.1454 47.0902L32.1368 47.087ZM37.5662 40.6937H12.7348C12.4489 40.6937 12.1747 40.5801 11.9725 40.3779C11.7703 40.1757 11.6567 39.9015 11.6567 39.6156C11.6567 39.3296 11.7703 39.0554 11.9725 38.8532C12.1747 38.651 12.4489 38.5375 12.7348 38.5375H37.5662C37.8522 38.5375 38.1264 38.651 38.3286 38.8532C38.5308 39.0554 38.6443 39.3296 38.6443 39.6156C38.6443 39.9015 38.5308 40.1757 38.3286 40.3779C38.1264 40.5801 37.8522 40.6937 37.5662 40.6937ZM44.2032 32.0773H12.7348C12.4489 32.0773 12.1747 31.9637 11.9725 31.7616C11.7703 31.5594 11.6567 31.2851 11.6567 30.9992C11.6567 30.7133 11.7703 30.439 11.9725 30.2369C12.1747 30.0347 12.4489 29.9211 12.7348 29.9211H44.2032C44.4891 29.9211 44.7633 30.0347 44.9655 30.2369C45.1677 30.439 45.2813 30.7133 45.2813 30.9992C45.2813 31.2851 45.1677 31.5594 44.9655 31.7616C44.7633 31.9637 44.4891 32.0773 44.2032 32.0773ZM44.2032 23.4599H12.7348C12.4489 23.4599 12.1747 23.3463 11.9725 23.1441C11.7703 22.9419 11.6567 22.6677 11.6567 22.3818C11.6567 22.0958 11.7703 21.8216 11.9725 21.6194C12.1747 21.4172 12.4489 21.3036 12.7348 21.3036H44.2032C44.4891 21.3036 44.7633 21.4172 44.9655 21.6194C45.1677 21.8216 45.2813 22.0958 45.2813 22.3818C45.2813 22.6677 45.1677 22.9419 44.9655 23.1441C44.7633 23.3463 44.4891 23.4599 44.2032 23.4599Z" fill="#85BF2D"/>
</svg>
