<svg width="61" height="61" viewBox="0 0 61 61" fill="none" xmlns="http://www.w3.org/2000/svg">
<g clip-path="url(#clip0_5_1054)">
<path d="M60.9931 50.1085C60.8269 48.2219 59.8493 46.4871 58.2405 45.2237C56.7058 44.0186 54.7239 43.355 52.6602 43.355C50.1843 43.355 47.8773 44.3191 46.3177 45.9189C44.9703 45.0694 43.35 44.5852 41.6495 44.5501C39.8815 44.5128 38.1734 44.9634 36.7487 45.8162C35.1929 44.2657 32.9448 43.355 30.5 43.355C28.0552 43.355 25.8069 44.2658 24.2514 45.8162C22.8269 44.9635 21.123 44.5129 19.3509 44.55C17.6504 44.5851 16.0299 45.0693 14.6823 45.9189C13.1226 44.3192 10.8156 43.355 8.33984 43.355C6.27609 43.355 4.29419 44.0186 2.75954 45.2237C1.15054 46.4871 0.172992 48.2219 0.00691016 50.1085C0.00238281 50.1605 0 50.2128 0 50.2651V59.2007C0 60.1876 0.800148 60.9878 1.78711 60.9878H59.2129C60.1999 60.9878 61 60.1876 61 59.2007V50.2651C61 50.2128 60.9976 50.1605 60.9931 50.1085Z" fill="#85BF2D"/>
<path d="M11.9102 37.136C13.6466 38.1385 15.5834 38.6359 17.5755 38.6359C19.6299 38.6359 21.7423 38.105 23.7512 37.0537C23.7512 37.0537 28.6697 39.8798 28.7131 39.901V39.9035C28.7144 39.9032 28.7158 39.9031 28.7171 39.903C28.7174 39.9031 28.7179 39.9034 28.7181 39.9035C28.7181 39.9032 28.7182 39.903 28.7182 39.9029C29.3044 39.8223 29.8998 39.7809 30.5001 39.7809C31.1021 39.7809 31.6993 39.8226 32.2872 39.9036V33.4493L38.1325 30.0745C40.1414 31.1258 42.2535 31.6567 44.3082 31.6567C46.2998 31.6567 48.2373 31.159 49.9734 30.1567C53.7842 27.9565 55.9738 23.7007 55.8303 18.7724C55.8129 18.1713 55.4941 17.6192 54.9823 17.3034C50.7859 14.7151 46.0054 14.4835 42.1948 16.6837C38.6678 18.7199 36.5311 22.5176 36.3458 26.979L32.2872 29.322V21.2039C36.0582 18.8128 38.2788 15.0636 38.2788 10.9908C38.2788 6.59032 35.6879 2.56634 31.3482 0.226303C30.8189 -0.0591582 30.1813 -0.0591582 29.6519 0.226303C25.3122 2.56622 22.7214 6.59032 22.7214 10.9908C22.7214 15.0636 24.9419 18.8128 28.713 21.2039V35.7914L25.5378 33.9582C25.3525 29.4969 23.2158 25.6992 19.6888 23.6629C15.8781 21.4626 11.0977 21.6944 6.9013 24.2827C6.38947 24.5984 6.07065 25.1505 6.05326 25.7517C5.90993 30.68 8.09938 34.9357 11.9102 37.136Z" fill="#85BF2D"/>
</g>
<defs>
<clipPath id="clip0_5_1054">
<rect width="61" height="61" fill="white"/>
</clipPath>
</defs>
</svg>
