<svg width="61" height="61" viewBox="0 0 61 61" fill="none" xmlns="http://www.w3.org/2000/svg">
<path d="M20.9092 37.7676C20.9092 38.7545 20.109 39.5547 19.1221 39.5547C18.1351 39.5547 17.335 38.7545 17.335 37.7676V35.9805H13.7607V46.7031H24.4834V35.9805H20.9092V37.7676Z" fill="#85BF2D"/>
<path d="M13.7607 32.4062H26.2705C27.2575 32.4062 28.0576 33.2064 28.0576 34.1934V61H32.8232V48.4902C32.8232 47.5033 33.6234 46.7031 34.6104 46.7031H47.1201V25.2578H13.7607V32.4062Z" fill="#85BF2D"/>
<path d="M43.5459 52.0645C43.5459 53.0514 42.7457 53.8516 41.7588 53.8516C40.7718 53.8516 39.9717 53.0514 39.9717 52.0645V50.2773H36.3975V61H47.1201V50.2773H43.5459V52.0645Z" fill="#85BF2D"/>
<path d="M20.9092 52.0645C20.9092 53.0514 20.109 53.8516 19.1221 53.8516C18.1351 53.8516 17.335 53.0514 17.335 52.0645V50.2773H13.7607V61H24.4834V50.2773H20.9092V52.0645Z" fill="#85BF2D"/>
<path d="M59.8903 13.1529L31.1774 0.158949C30.7081 -0.0534785 30.17 -0.0528828 29.7013 0.160141L1.10754 13.1541C0.46942 13.4441 0.0598145 14.0802 0.0598145 14.7811V59.2128C0.0598145 60.1997 0.859963 60.9999 1.84692 60.9999H10.1868V23.4706C10.1868 22.4836 10.9869 21.6835 11.9739 21.6835H48.9075C49.8944 21.6835 50.6946 22.4836 50.6946 23.4706V60.9999H59.1536C60.1405 60.9999 60.9407 60.1997 60.9407 59.2128V14.7811C60.9406 14.0792 60.5298 13.4422 59.8903 13.1529ZM35.8019 15.7265H25.0792C24.0923 15.7265 23.2921 14.9263 23.2921 13.9393C23.2921 12.9524 24.0923 12.1522 25.0792 12.1522H35.8019C36.7888 12.1522 37.589 12.9524 37.589 13.9393C37.589 14.9263 36.7888 15.7265 35.8019 15.7265Z" fill="#85BF2D"/>
</svg>
