<svg width="63" height="63" viewBox="0 0 63 63" fill="none" xmlns="http://www.w3.org/2000/svg">
<g clip-path="url(#clip0_5_1105)">
<path d="M33.3492 0C29.2775 0 25.8434 3.43411 25.8434 7.50585C25.8434 11.5776 29.2775 15.0117 33.3492 15.0117C37.4209 15.0117 40.732 11.5776 40.732 7.50585C40.732 3.43411 37.4209 0 33.3492 0Z" fill="#85BF2D"/>
<path d="M41.5431 15.0117C39.5147 17.2609 36.6095 18.7031 33.3492 18.7031C30.089 18.7031 27.0607 17.2609 25.0323 15.0117C23.2614 16.9754 22.152 19.548 22.152 22.3945V24.2402C22.152 25.2604 22.9775 26.0859 23.9977 26.0859H42.5777C43.5979 26.0859 44.4234 25.2604 44.4234 24.2402V22.3945C44.4234 19.548 43.314 16.9754 41.5431 15.0117Z" fill="#85BF2D"/>
<path d="M17.8352 56.6513L8.42936 37.7937C7.52115 35.9728 5.31074 35.2302 3.48756 36.1335L1.02921 37.3513C0.113866 37.8052 -0.258596 38.9177 0.198276 39.8314L11.2725 61.9798C11.7279 62.8932 12.8357 63.2567 13.7436 62.8089L16.1703 61.6066C18.0007 60.7 18.7467 58.4791 17.8352 56.6513Z" fill="#85BF2D"/>
<path d="M61.4901 30.4787C59.9765 29.3712 57.8724 29.5927 56.6175 30.9585L46.5276 43.3617C45.8263 44.0999 44.4974 44.5429 43.796 44.5429H35.1949C34.1612 44.5429 33.3492 43.7309 33.3492 42.6972C33.3492 41.6635 34.1612 40.8515 35.1949 40.8515C37.6669 40.8515 40.4037 40.8515 42.5777 40.8515C44.608 40.8515 46.2691 39.1904 46.2691 37.1601C46.2691 35.1298 44.608 33.4687 42.5777 33.4687C33.9096 33.4687 42.1778 33.4687 32.9062 33.4687C31.9863 33.4687 31.5276 32.8853 30.8021 32.2504C27.9464 29.6806 23.6717 28.4425 19.3442 29.4456C16.9413 30.0025 15.3209 30.9732 13.6775 32.2748L13.6227 32.2304L10.9531 34.5798L21.4446 55.6171H24.5513H42.5777C46.0476 55.6171 49.37 53.956 51.4372 51.1874L62.2652 35.6835C63.4833 34.0592 63.1511 31.697 61.4901 30.4787Z" fill="#85BF2D"/>
</g>
<defs>
<clipPath id="clip0_5_1105">
<rect width="63" height="63" fill="white"/>
</clipPath>
</defs>
</svg>
