<svg width="61" height="61" viewBox="0 0 61 61" fill="none" xmlns="http://www.w3.org/2000/svg">
<g clip-path="url(#clip0_5_1096)">
<path d="M50.4928 10.2755C45.5578 5.34045 38.9962 2.62255 32.0172 2.62255C31.1036 2.62255 30.1886 2.67049 29.2806 2.76496C26.9472 -2.07326 12.1416 0.0447398 8.79637 4.46411C-0.854021 17.3876 0.688757 55.5792 17.6575 60.611C21.4606 61.6972 32.2419 60.5547 31.273 56.6086L28.3312 46.7623C27.3628 43.4678 27.8924 44.4977 23.3003 44.6424C22.1881 44.6783 19.6768 45.1851 18.78 43.7009C16.9142 40.5875 15.9099 32.2616 16.0532 29.076C16.1249 27.5555 16.8067 20.6412 17.9907 19.3744C19.7843 17.4193 23.4521 20.2633 25.6766 15.3399L29.0721 6.39037C30.0453 6.26332 31.0319 6.19956 32.0172 6.19956C44.452 6.19956 54.5687 16.3158 54.5687 28.7506C54.5687 33.8956 52.8816 38.7403 49.6904 42.7604C47.1894 45.9111 43.8698 48.3437 40.1536 49.7873L40.6083 48.6025C40.962 47.6805 40.5013 46.6459 39.5789 46.2922C38.6564 45.939 37.6223 46.3993 37.2686 47.3217L35.6789 51.4655C35.3778 52.2502 35.4103 53.1363 35.7673 53.8968C36.1247 54.6572 36.786 55.2478 37.5819 55.5173L41.9319 56.9893C42.1218 57.0535 42.3149 57.0838 42.5052 57.0838C43.2508 57.0838 43.9466 56.6137 44.1993 55.8682C44.5157 54.9327 44.0136 53.9177 43.0781 53.6012L41.5465 53.0828C45.8114 51.4055 49.6188 48.6034 52.4921 44.984C56.1906 40.325 58.1452 34.7114 58.1452 28.7506C58.1452 21.7716 55.4278 15.2105 50.4928 10.2755Z" fill="#85BF2D"/>
<path d="M34.8436 17.3606C27.945 17.3606 22.3324 22.9728 22.3324 29.8718C22.3324 36.7703 27.945 42.3825 34.8436 42.3825C41.7421 42.3825 47.3543 36.7703 47.3543 29.8718C47.3543 22.9728 41.7421 17.3606 34.8436 17.3606ZM36.6321 35.2028C36.6321 36.1904 35.8311 36.9913 34.8436 36.9913C33.856 36.9913 33.0551 36.1904 33.0551 35.2028V30.6173C33.0551 29.6298 33.856 28.8293 34.8436 28.8293C35.8311 28.8293 36.6321 29.6298 36.6321 30.6173V35.2028ZM36.6321 25.7074C36.6321 26.695 35.8311 27.4955 34.8436 27.4955C33.856 27.4955 33.0551 26.695 33.0551 25.7074V24.5151C33.0551 23.5275 33.856 22.7266 34.8436 22.7266C35.8311 22.7266 36.6321 23.5275 36.6321 24.5151V25.7074Z" fill="#85BF2D"/>
</g>
<defs>
<clipPath id="clip0_5_1096">
<rect width="61" height="61" fill="white"/>
</clipPath>
</defs>
</svg>
