<svg width="61" height="61" viewBox="0 0 61 61" fill="none" xmlns="http://www.w3.org/2000/svg">
<g clip-path="url(#clip0_5_1075)">
<path d="M48.669 8.14862V8.14124H12.3311V8.1485L9.07275 13.0851V47.9148L12.3311 52.8514V52.8586H48.669V52.8512L51.9273 47.9148V13.0851L48.669 8.14862ZM39.396 41.183H21.6042V37.6088H39.396V41.183ZM39.9197 32.7695C38.2622 34.0069 36.2261 34.3652 34.4242 34.3652C32.7511 34.3652 31.2799 34.0563 30.5003 33.8556C29.7205 34.0563 28.2493 34.3652 26.5764 34.3652C24.7743 34.3652 22.7385 34.007 21.0808 32.7695C17.3674 29.9973 17.3483 24.0627 17.3583 23.3952L17.3779 22.0909L18.626 21.7121C19.2575 21.5204 24.9029 19.919 28.6088 22.6856C29.395 23.2725 30.0134 23.9997 30.5003 24.7876C30.9874 23.9997 31.6056 23.2725 32.3919 22.6856C36.0978 19.919 41.743 21.5204 42.3746 21.7121L43.6227 22.0909L43.6422 23.3952C43.6521 24.0627 43.6332 29.9973 39.9197 32.7695Z" fill="#85BF2D"/>
<path d="M48.6689 0H12.3311V4.56666H48.6689V0Z" fill="#85BF2D"/>
<path d="M48.6689 56.4333H12.3311V61H48.6689V56.4333Z" fill="#85BF2D"/>
<path d="M26.4704 25.5497C25.039 24.4811 22.6548 24.5669 21.0166 24.8335C21.2113 26.4964 21.7879 28.8372 23.2187 29.9055C24.6435 30.9691 27.0332 30.866 28.6402 30.5964C28.4591 28.9467 27.8996 26.6166 26.4704 25.5497Z" fill="#85BF2D"/>
<path d="M34.5298 25.5496C33.1006 26.6165 32.5412 28.9465 32.3599 30.5978C33.9804 30.8736 36.351 30.9732 37.7814 29.9054C39.2064 28.8416 39.7849 26.4812 39.9819 24.833C38.3454 24.5667 35.9614 24.481 34.5298 25.5496Z" fill="#85BF2D"/>
</g>
<defs>
<clipPath id="clip0_5_1075">
<rect width="61" height="61" fill="white"/>
</clipPath>
</defs>
</svg>
